# xmcd CD database file
#
# Track frame offsets:
#	150
#	21900
#	43530
#	63990
#	97287
#	118350
#	139347
#	172120
#	192355
#	213437
#	236237
#	263520
#	289340
#	310027
#	328212
#
# Disc length: 4671 seconds
#
# Revision: 0
# Processed by: cddbd v1.5.2PL0 Copyright (c) Steve Scherf et al.
# Submitted via: CDex 1.51
#
DISCID=f1123d0f
DTITLE=Varios - Salsa para Vivir
DYEAR=1900
DGENRE=Salsa
TTITLE0=Que pena (ella ya no me quiere más) - Oscar d' Leon, Elba Ramalho
TTITLE1=Sazón - Celia Cruz
TTITLE2=Oye como va - Tito Puente
TTITLE3=Pedro Navaja - Willie Colón, Rubén Blades
TTITLE4=Juego de amor - José Alberto "el Canario"
TTITLE5=Pau Pau - Orquesta Guayacán
TTITLE6=El día que me quieras - Cheo Feliciano, Eddie Palmieri
TTITLE7=No me cambie camino - Celia Cruz, Ray Barretto
TTITLE8=Ese hombre - India
TTITLE9=El cigarrito - Johnny Pacheco y Celio Gonzalez
TTITLE10=Ligia Elena - Willie Colón, Rubén Blades
TTITLE11=Radio Mix
TTITLE12=Soy loco por tí America - Oscar D' Leon
TTITLE13=Para los rumberos - Tito Puente
TTITLE14=Ella es - Tony Vega
EXTD=
EXTT0=
EXTT1=
EXTT2=
EXTT3=
EXTT4=
EXTT5=
EXTT6=
EXTT7=
EXTT8=
EXTT9=
EXTT10=
EXTT11=
EXTT12=
EXTT13=
EXTT14=
PLAYORDER=
